<svg width="48" height="48" viewBox="0 0 24 24" fill="none" xmlns="http://www.w3.org/2000/svg" data-reactroot="">
<path fill="none" d="M16 21.1599C14.36 21.8899 12.49 22.1799 10.52 21.8999C6.33003 21.2999 2.90003 17.9899 2.16003 13.8199C1.37003 9.33992 3.57003 5.25992 7.11003 3.27992C8.55003 2.46992 10.19 2.00992 11.95 1.99992C17.17 1.96992 21.66 6.15992 21.98 11.3799C22.02 12.0599 21.99 12.7299 21.91 13.3799C21.7 14.8599 20.41 15.9499 18.93 15.9499C18.88 15.9499 18.84 15.9499 18.79 15.9499C17.23 15.8899 16 14.5999 16 13.0399V11.9999V7.99992" undefined="1"></path>
<path stroke-linejoin="round" stroke-linecap="round" stroke-miterlimit="9.3333" stroke-width="1" stroke="#000000" d="M16 21.1599C14.36 21.8899 12.49 22.1799 10.52 21.8999C6.33003 21.2999 2.90003 17.9899 2.16003 13.8199C1.37003 9.33992 3.57003 5.25992 7.11003 3.27992C8.55003 2.46992 10.19 2.00992 11.95 1.99992C17.17 1.96992 21.66 6.15992 21.98 11.3799C22.02 12.0599 21.99 12.7299 21.91 13.3799C21.7 14.8599 20.41 15.9499 18.93 15.9499C18.88 15.9499 18.84 15.9499 18.79 15.9499C17.23 15.8899 16 14.5999 16 13.0399V11.9999V7.99992"></path>
<path stroke-linejoin="round" stroke-linecap="round" stroke-miterlimit="9.3333" stroke-width="1" stroke="#000000" fill="none" d="M12 16C14.2091 16 16 14.2091 16 12C16 9.79086 14.2091 8 12 8C9.79086 8 8 9.79086 8 12C8 14.2091 9.79086 16 12 16Z"></path>
</svg>
