<svg xmlns="http://www.w3.org/2000/svg" xml:space="preserve" enable-background="new 0 0 512 512" viewBox="98.57 43.08 314.96 425.78"><path d="M318.19 412.93a7.079 7.079 0 0 0 2.05-4.95c0-1.85-.75-3.65-2.05-4.95a7.019 7.019 0 0 0-4.95-2.05c-1.84 0-3.65.74-4.95 2.05-1.3 1.3-2.05 3.1-2.05 4.95 0 1.84.75 3.64 2.05 4.95 1.3 1.3 3.11 2.05 4.95 2.05 1.84 0 3.65-.75 4.95-2.05z" fill="#1f1f1f" class="fill-474747"/><path d="M105.45 468.86h103.03c3.87 0 7-3.13 7-7v-11.25c0-9.04 6.76-16.77 15.73-17.99 12.2-1.66 36.63-5.44 63.2-12.15a6.994 6.994 0 0 0 5.07-8.5 6.994 6.994 0 0 0-8.5-5.07c-25.91 6.54-49.75 10.23-61.66 11.85-15.88 2.16-27.85 15.86-27.85 31.86v4.25h-88.6a250.04 250.04 0 0 1 5.66-37.47c3.4-14.75 8.15-29.19 14.12-42.91 21.01-48.26 35.52-60.87 42.3-64.1 5.47-2.6 13.07-5.11 21.97-7.26 1.32-.32 2.67-.63 4.03-.92 17.99-3.95 39.23-6.14 56.45-5.76 20.59.45 29.48 4.26 32.09 6.87.33.33.57.65.71.94-.44.73-2.89 3.77-14.27 7.96-.48.18-.97.36-1.48.54-9.95 3.52-22.21 6.47-33.03 9.08-21.46 5.18-28.69 6.92-30.21 13.52-6.01 26.05 4.23 33.65 10.87 35.85.23.08.48.15.75.22.09.02.19.05.28.07.19.05.38.1.59.14.12.03.25.05.37.08.2.04.4.08.61.12.14.03.29.05.44.08.21.04.42.07.64.11.16.02.33.05.5.07.23.03.46.06.7.1.18.02.36.05.54.07l.75.09.58.06c.27.03.54.05.82.08.2.02.4.04.61.05.29.02.58.05.88.07.21.02.43.03.65.05l.95.06c.22.01.43.03.66.04l1.06.06.63.03c.42.02.85.04 1.29.05.16.01.31.01.47.02l1.85.06h.17c.57.01 1.15.03 1.74.03.22 0 .45.01.67.01.44.01.87.01 1.32.01h2.02c.44 0 .88 0 1.33-.01.32 0 .63 0 .95-.01.48 0 .98-.01 1.47-.02.29 0 .58-.01.87-.01.66-.01 1.34-.03 2.02-.04.13 0 .25-.01.38-.01.81-.02 1.63-.05 2.45-.07l.79-.03 1.72-.06c.33-.01.66-.03.99-.04.52-.02 1.04-.05 1.57-.07l1.08-.06c.5-.03 1.01-.05 1.51-.08.37-.02.75-.04 1.13-.07l1.51-.09c.39-.02.77-.05 1.16-.08.5-.03 1-.07 1.5-.1l1.18-.09 1.52-.12 1.18-.09c.51-.04 1.02-.09 1.53-.13.4-.03.8-.07 1.2-.1.51-.05 1.03-.09 1.55-.14.4-.04.8-.07 1.19-.11.53-.05 1.06-.11 1.59-.16l1.15-.12 1.67-.18 1.08-.12c.62-.07 1.24-.15 1.86-.22.3-.04.59-.07.89-.11.92-.11 1.83-.23 2.75-.35 27.08-3.58 62.24-11.9 75.97-31.24 1.77-2.5 3.41-5.16 4.94-7.94 1.44-2.63 2.78-5.37 4.02-8.18.23-.51.45-1.02.67-1.54.42-.98.83-1.96 1.23-2.95 3.54-8.77 6.3-17.99 8.65-26.59v-.01c1.13-4.13 2.2-8.22 3.23-12.18 2.78-10.67 5.41-20.75 8.38-27.71 1.62-3.81 3.06-5.94 4.1-7.03 1.93 7.04 1.5 28.54-5.36 62.34-7.31 36.01-16.68 60.35-21.8 64.97-8.99 8.11-22.88 15.76-41.28 22.74-3.62 1.37-5.43 5.41-4.06 9.03 1.37 3.62 5.41 5.43 9.03 4.06 20.04-7.6 35.41-16.16 45.7-25.44 12.41-11.2 22.59-55.71 25.41-69.08 2.83-13.4 11.54-58.42 4.84-75.16-3.14-7.84-8.98-8.54-11.35-8.46-15.23.42-20.49 20.63-27.15 46.21-1.02 3.91-2.07 7.96-3.18 12.01 0 .01 0 .01-.01.02-2.76 10.09-6.09 21.07-10.56 30.7-2.03 4.38-4.3 8.47-6.86 12.08-8.41 11.85-31.9 20.88-66.13 25.43-29.57 3.93-55.31 2.96-59.31 1.69-3.19-1.06-3.99-7.63-2.17-17 3.79-1.48 12.87-3.67 20.37-5.48 30.41-7.34 52.38-13.43 58.13-25.14 1.85-3.77 1.92-7.82.18-11.71-.16-.36-.33-.71-.52-1.05-.06-.11-.13-.22-.2-.34-.13-.23-.26-.45-.4-.67-.08-.13-.17-.26-.26-.38-.13-.2-.27-.4-.41-.59l-.3-.39c-.14-.18-.29-.36-.44-.54-.11-.13-.23-.26-.34-.39-.15-.17-.31-.34-.47-.51-.12-.13-.25-.25-.37-.37l-.51-.48c-.13-.12-.27-.24-.4-.36-.18-.16-.37-.31-.55-.46-.14-.11-.28-.23-.42-.34-.2-.15-.41-.3-.61-.45-.14-.1-.28-.21-.43-.31-.23-.16-.46-.31-.7-.46-.13-.09-.26-.17-.4-.26-.33-.21-.68-.41-1.02-.61-.09-.05-.18-.1-.26-.15-.35-.19-.71-.39-1.08-.57-.16-.08-.33-.16-.49-.24-.26-.13-.52-.25-.78-.37-.19-.09-.39-.17-.58-.26-.25-.11-.49-.22-.74-.32-.21-.09-.42-.17-.63-.25-.25-.1-.49-.2-.75-.29-.22-.08-.45-.16-.67-.25l-.75-.27c-.23-.08-.47-.16-.7-.24-.25-.08-.51-.16-.77-.24-.24-.08-.49-.15-.73-.22-.26-.08-.52-.15-.79-.22-.25-.07-.5-.14-.76-.21l-.81-.21c-.26-.06-.51-.13-.77-.19-.28-.07-.57-.13-.85-.2l-.78-.18c-.3-.07-.61-.13-.91-.19-.5-.1-1.01-.2-1.52-.29-.29-.05-.57-.11-.86-.16-.3-.05-.61-.1-.92-.15-.27-.04-.54-.09-.81-.13-.31-.05-.63-.09-.95-.14l-.81-.12c-.32-.04-.65-.09-.97-.13-.27-.03-.55-.07-.82-.1-.33-.04-.66-.08-1-.11l-.82-.09c-.34-.04-.67-.07-1.01-.1-.28-.03-.55-.05-.83-.08l-1.04-.09-.81-.06c-.36-.03-.72-.05-1.08-.08-.26-.02-.52-.03-.78-.05-.38-.02-.75-.05-1.13-.07l-.69-.03-1.24-.06c-.09 0-.19-.01-.28-.01-1.1-.04-2.22-.08-3.34-.1h-.15c-.44-.01-.89-.01-1.33-.02-.21 0-.43-.01-.65-.01-.42 0-.85 0-1.27-.01h-.71c-.42 0-.83 0-1.25.01-.25 0-.5 0-.75.01-.42 0-.83.01-1.25.02-.25 0-.5.01-.75.01l-1.25.03c-.25.01-.51.01-.76.02-.42.01-.84.03-1.26.04l-.73.03c-.43.02-.87.03-1.3.05l-.65.03c-.46.02-.92.04-1.38.07l-.51.03c-2.31.12-4.62.28-6.92.46-.15.01-.3.02-.45.04l-1.4.12c-.2.02-.41.03-.61.05l-1.34.12-.66.06c-.44.04-.87.08-1.3.13-.23.02-.45.05-.68.07-.42.04-.84.09-1.26.13-.24.03-.47.05-.71.08-.42.05-.83.09-1.24.14-.23.03-.47.05-.7.08l-1.25.15c-.21.03-.42.05-.63.08-.44.05-.88.11-1.31.16l-.46.06c-2.17.28-4.3.57-6.37.88-.17.02-.33.05-.5.07-.4.06-.79.12-1.18.18-.22.03-.43.07-.65.1-.37.06-.73.12-1.09.17-.24.04-.48.08-.71.12-.35.06-.69.11-1.03.17l-.73.12c-.34.06-.67.11-1 .17-.25.04-.49.09-.74.13-.32.06-.64.11-.96.17-.24.04-.48.09-.73.13-.31.06-.63.12-.94.17-.25.05-.49.09-.74.14-.29.06-.59.11-.88.17-.04.01-.08.02-.12.02.32-9.45.71-18.31 4.12-23.75.05-.09.11-.18.16-.27 7.83-13.86 30.47-19.23 51.82-22.59 2.8.28 4.86.26 6.69.23 3.03.7 6.15 1.46 9.29 2.26 1.88.65 3.63 1.24 5.29 1.8l1.68.56c.01 0 .03.01.04.01.3.1.6.18.91.23.02 0 .04.01.06.01 8.09 1.44 16.47 1.42 24.55 1.4 12.5-.03 24.34-.05 32.89 5.29.14.08.27.16.42.24 5.47 2.92 9.38 8.71 12.78 14.52 1.95 3.34 6.24 4.46 9.58 2.51 3.34-1.95 4.46-6.24 2.51-9.58-4.19-7.17-9.61-15.1-18.06-19.69-11.93-7.35-26.27-7.33-40.14-7.3-5.67.01-11.11.02-16.29-.44v-6.67c0-.92.01-2.05.02-3.22.02-2.06.03-4.17.01-5.78.99-7.98 1.65-16.22 2.01-24.6 3.18.68 6.46 1.03 9.78 1.03 10.47 0 21.37-3.38 31.02-9.94 15.94-10.84 25.04-28.03 23.75-44.87a7.007 7.007 0 0 0-3.91-5.76c-15.18-7.4-34.52-5.25-50.46 5.59a59.398 59.398 0 0 0-11.07 9.73c-.47-6.1-1.08-12.37-1.83-18.83 11.2-10.8 16.44-27.8 13.73-45.39-2.94-19.05-14.55-34.66-30.31-40.73a7.004 7.004 0 0 0-6.88 1.06c-13.21 10.53-19.58 28.91-16.64 47.97 2.67 17.34 12.57 31.82 26.21 38.84.56 4.84 1.04 9.57 1.44 14.2-2.52-2.49-5.32-4.8-8.36-6.87-15.94-10.84-35.28-12.99-50.47-5.59a7.007 7.007 0 0 0-3.91 5.76c-1.29 16.84 7.81 34.03 23.75 44.87 9.65 6.56 20.55 9.94 31.02 9.94 3.1 0 6.17-.31 9.15-.91-.35 7.92-1 15.7-1.94 23.23-.04.34-.06.68-.05 1.02.03 1.44.01 3.81 0 5.89-.01 1.21-.02 2.38-.02 3.33v3.21c-3.11-.78-6.2-1.54-9.2-2.22-.54-.12-1.08-.18-1.65-.17l-.65.01c-1.89.03-3.53.06-6.02-.24-.63-.07-1.27-.06-1.9.03-26.12 4.05-51.79 10.44-62.69 29.54-5.42 8.77-5.79 19.75-6.18 31.37-.03.96-.07 1.95-.11 2.93-7.71 2.08-14.29 4.4-19.58 6.91-15.19 7.22-31.72 31.16-49.13 71.15-6.32 14.51-11.34 29.77-14.93 45.36a264.946 264.946 0 0 0-6.44 47.29c-.09 1.91.61 3.77 1.93 5.15 1.2 1.47 3.02 2.25 4.94 2.25zM311 150.39c10.24-6.96 22.55-9.19 32.54-6.12-.82 10.41-7.42 21.05-17.65 28.01-10.23 6.96-22.54 9.19-32.53 6.12.81-10.41 7.4-21.05 17.64-28.01zm-47.04-59.88c-1.89-12.24 1.39-24.32 8.45-32.01 9.04 5.21 15.81 15.74 17.7 27.98 1.89 12.22-1.39 24.3-8.45 32-9.04-5.21-15.82-15.75-17.7-27.97zm-17.31 81.77c-10.23-6.96-16.83-17.6-17.65-28.01 9.98-3.07 22.3-.84 32.54 6.12 10.23 6.96 16.83 17.6 17.64 28.01-9.98 3.06-22.3.84-32.53-6.12z" fill="#1f1f1f" class="fill-474747"/></svg>